<svg width="100%" viewBox="0 0 680 380" role="img" xmlns="http://www.w3.org/2000/svg">
<title>Okane Budget Tracker — project banner</title>
<desc>A dark-themed anime-style project banner for the Okane Budget Tracker app showing a phone mockup with budget data, floating sakura petals, and app branding.</desc>

<style>
  @keyframes float1{0%,100%{transform:translateY(0) rotate(-8deg)}50%{transform:translateY(-10px) rotate(4deg)}}
  @keyframes float2{0%,100%{transform:translateY(0) rotate(12deg)}50%{transform:translateY(-14px) rotate(-6deg)}}
  @keyframes float3{0%,100%{transform:translateY(0) rotate(-3deg)}50%{transform:translateY(-8px) rotate(8deg)}}
  @keyframes pulse{0%,100%{opacity:0.6}50%{opacity:1}}
  .p1{animation:float1 4s ease-in-out infinite}
  .p2{animation:float2 5.5s ease-in-out infinite}
  .p3{animation:float3 3.8s ease-in-out infinite}
  .glow{animation:pulse 3s ease-in-out infinite}
</style>

<!-- Background -->
<rect width="680" height="380" fill="#0D1117" rx="16"/>

<!-- Subtle radial glows -->
<ellipse cx="160" cy="160" rx="180" ry="140" fill="rgba(199,125,255,0.07)"/>
<ellipse cx="520" cy="240" rx="160" ry="130" fill="rgba(255,107,157,0.06)"/>
<ellipse cx="340" cy="380" rx="220" ry="100" fill="rgba(126,200,227,0.05)"/>

<!-- Dot grid top-right -->
<g fill="rgba(255,255,255,0.06)">
  <circle cx="560" cy="30" r="2"/><circle cx="580" cy="30" r="2"/><circle cx="600" cy="30" r="2"/><circle cx="620" cy="30" r="2"/><circle cx="640" cy="30" r="2"/>
  <circle cx="560" cy="50" r="2"/><circle cx="580" cy="50" r="2"/><circle cx="600" cy="50" r="2"/><circle cx="620" cy="50" r="2"/><circle cx="640" cy="50" r="2"/>
  <circle cx="560" cy="70" r="2"/><circle cx="580" cy="70" r="2"/><circle cx="600" cy="70" r="2"/><circle cx="620" cy="70" r="2"/><circle cx="640" cy="70" r="2"/>
  <circle cx="560" cy="90" r="2"/><circle cx="580" cy="90" r="2"/><circle cx="600" cy="90" r="2"/><circle cx="620" cy="90" r="2"/><circle cx="640" cy="90" r="2"/>
</g>

<!-- Dot grid bottom-left -->
<g fill="rgba(255,255,255,0.04)">
  <circle cx="40" cy="300" r="2"/><circle cx="60" cy="300" r="2"/><circle cx="80" cy="300" r="2"/>
  <circle cx="40" cy="320" r="2"/><circle cx="60" cy="320" r="2"/><circle cx="80" cy="320" r="2"/>
  <circle cx="40" cy="340" r="2"/><circle cx="60" cy="340" r="2"/><circle cx="80" cy="340" r="2"/>
  <circle cx="40" cy="360" r="2"/><circle cx="60" cy="360" r="2"/><circle cx="80" cy="360" r="2"/>
</g>

<!-- Phone mockup -->
<rect x="410" y="40" width="210" height="310" rx="24" fill="#161B22" stroke="rgba(255,107,157,0.35)" stroke-width="1.5"/>
<rect x="418" y="55" width="194" height="280" rx="16" fill="#0D1117"/>
<rect x="490" y="55" width="50" height="10" rx="5" fill="#161B22"/>

<!-- Hero card -->
<rect x="426" y="72" width="178" height="80" rx="10" fill="#161B22" stroke="rgba(255,107,157,0.2)" stroke-width="0.5"/>
<text x="436" y="88" fill="#8B949E" font-size="7" font-family="system-ui,sans-serif" letter-spacing="1">MONEY LEFT</text>
<text x="436" y="112" fill="#06D6A0" font-size="22" font-family="system-ui,sans-serif" font-weight="700">&#8377;6,840</text>
<text x="574" y="118" font-size="22" text-anchor="middle">&#x1F338;</text>
<rect x="436" y="126" width="158" height="5" rx="2.5" fill="rgba(255,255,255,0.07)"/>
<rect x="436" y="126" width="98" height="5" rx="2.5" fill="#06D6A0"/>

<!-- Stat cards -->
<rect x="426" y="162" width="84" height="38" rx="8" fill="#1C2330" stroke="rgba(76,175,80,0.3)" stroke-width="0.5"/>
<text x="468" y="177" fill="#4CAF50" font-size="9" font-family="system-ui,sans-serif" font-weight="700" text-anchor="middle">&#8377;12,000</text>
<text x="468" y="191" fill="#8B949E" font-size="7" font-family="system-ui,sans-serif" text-anchor="middle">Income</text>

<rect x="520" y="162" width="84" height="38" rx="8" fill="#1C2330" stroke="rgba(255,107,157,0.3)" stroke-width="0.5"/>
<text x="562" y="177" fill="#FF6B9D" font-size="9" font-family="system-ui,sans-serif" font-weight="700" text-anchor="middle">&#8377;5,160</text>
<text x="562" y="191" fill="#8B949E" font-size="7" font-family="system-ui,sans-serif" text-anchor="middle">Spent</text>

<!-- Entry rows -->
<rect x="426" y="210" width="178" height="28" rx="7" fill="#1C2330" stroke="rgba(255,255,255,0.06)" stroke-width="0.5"/>
<text x="438" y="228" font-size="14">&#x1F695;</text>
<text x="456" y="225" fill="#E8EDF5" font-size="8" font-family="system-ui,sans-serif" font-weight="600">Cab to office</text>
<text x="456" y="234" fill="#8B949E" font-size="7" font-family="system-ui,sans-serif">Cab · Today</text>
<text x="598" y="228" fill="#FF6B9D" font-size="9" font-family="system-ui,sans-serif" font-weight="700" text-anchor="end">-&#8377;120</text>

<rect x="426" y="244" width="178" height="28" rx="7" fill="#1C2330" stroke="rgba(255,255,255,0.06)" stroke-width="0.5"/>
<text x="438" y="262" font-size="14">&#x1F35C;</text>
<text x="456" y="259" fill="#E8EDF5" font-size="8" font-family="system-ui,sans-serif" font-weight="600">Lunch</text>
<text x="456" y="268" fill="#8B949E" font-size="7" font-family="system-ui,sans-serif">Food · Today</text>
<text x="598" y="262" fill="#FF6B9D" font-size="9" font-family="system-ui,sans-serif" font-weight="700" text-anchor="end">-&#8377;85</text>

<rect x="426" y="278" width="178" height="28" rx="7" fill="#1C2330" stroke="rgba(76,175,80,0.18)" stroke-width="0.5"/>
<text x="438" y="296" font-size="14">&#x1F4BC;</text>
<text x="456" y="293" fill="#E8EDF5" font-size="8" font-family="system-ui,sans-serif" font-weight="600">Salary</text>
<text x="456" y="302" fill="#8B949E" font-size="7" font-family="system-ui,sans-serif">Income · Apr</text>
<text x="598" y="296" fill="#4CAF50" font-size="9" font-family="system-ui,sans-serif" font-weight="700" text-anchor="end">+&#8377;12,000</text>

<!-- Bottom nav -->
<rect x="418" y="315" width="194" height="20" rx="0" fill="#161B22"/>
<text x="447" y="328" font-size="10" text-anchor="middle">&#x1F3E0;</text>
<text x="480" y="328" font-size="10" text-anchor="middle">&#x2795;</text>
<text x="515" y="328" font-size="10" text-anchor="middle">&#x1F4B8;</text>
<text x="550" y="328" font-size="10" text-anchor="middle">&#x1F4CA;</text>
<rect x="438" y="333" width="18" height="2" rx="1" fill="#FF6B9D"/>

<!-- App icon -->
<rect x="52" y="52" width="54" height="54" rx="16" fill="#FF6B9D"/>
<rect x="52" y="52" width="54" height="54" rx="16" fill="rgba(199,125,255,0.4)"/>
<text x="79" y="87" font-size="26" text-anchor="middle">&#x1F4B4;</text>

<!-- Branding -->
<text x="52" y="134" fill="#FF6B9D" font-size="22" font-family="system-ui,sans-serif" font-weight="700">&#x304A;&#x91D1;&#x30C8;&#x30E9;&#x30C3;&#x30AB;&#x30FC;</text>
<text x="52" y="158" fill="#E8EDF5" font-size="26" font-family="system-ui,sans-serif" font-weight="700">Okane</text>
<text x="52" y="186" fill="#E8EDF5" font-size="26" font-family="system-ui,sans-serif" font-weight="700">Budget Tracker</text>
<text x="52" y="218" fill="#8B949E" font-size="13" font-family="system-ui,sans-serif">Track smarter. Save better.</text>
<line x1="52" y1="235" x2="340" y2="235" stroke="rgba(255,255,255,0.08)" stroke-width="0.5"/>

<!-- Tech pills -->
<rect x="52" y="250" width="62" height="20" rx="10" fill="rgba(126,200,227,0.12)" stroke="rgba(126,200,227,0.3)" stroke-width="0.5"/>
<text x="83" y="264" fill="#7EC8E3" font-size="10" font-family="system-ui,sans-serif" text-anchor="middle">Python</text>
<rect x="122" y="250" width="46" height="20" rx="10" fill="rgba(255,107,157,0.12)" stroke="rgba(255,107,157,0.3)" stroke-width="0.5"/>
<text x="145" y="264" fill="#FF6B9D" font-size="10" font-family="system-ui,sans-serif" text-anchor="middle">Flask</text>
<rect x="176" y="250" width="50" height="20" rx="10" fill="rgba(6,214,160,0.12)" stroke="rgba(6,214,160,0.3)" stroke-width="0.5"/>
<text x="201" y="264" fill="#06D6A0" font-size="10" font-family="system-ui,sans-serif" text-anchor="middle">MySQL</text>
<rect x="234" y="250" width="38" height="20" rx="10" fill="rgba(255,209,102,0.12)" stroke="rgba(255,209,102,0.3)" stroke-width="0.5"/>
<text x="253" y="264" fill="#FFD166" font-size="10" font-family="system-ui,sans-serif" text-anchor="middle">PWA</text>
<rect x="52" y="278" width="60" height="20" rx="10" fill="rgba(199,125,255,0.12)" stroke="rgba(199,125,255,0.3)" stroke-width="0.5"/>
<text x="82" y="292" fill="#C77DFF" font-size="10" font-family="system-ui,sans-serif" text-anchor="middle">IndexedDB</text>
<rect x="120" y="278" width="80" height="20" rx="10" fill="rgba(74,144,217,0.12)" stroke="rgba(74,144,217,0.3)" stroke-width="0.5"/>
<text x="160" y="292" fill="#7EC8E3" font-size="10" font-family="system-ui,sans-serif" text-anchor="middle">REST API</text>

<!-- Feature list -->
<rect x="52" y="318" width="14" height="14" rx="3" fill="rgba(255,107,157,0.2)"/>
<text x="59" y="329" font-size="9" text-anchor="middle">&#x1F465;</text>
<text x="72" y="329" fill="#8B949E" font-size="11" font-family="system-ui,sans-serif">Multi-user</text>
<rect x="52" y="338" width="14" height="14" rx="3" fill="rgba(6,214,160,0.2)"/>
<text x="59" y="349" font-size="9" text-anchor="middle">&#x1F4F4;</text>
<text x="72" y="349" fill="#8B949E" font-size="11" font-family="system-ui,sans-serif">Offline-first PWA</text>
<rect x="170" y="318" width="14" height="14" rx="3" fill="rgba(255,209,102,0.2)"/>
<text x="177" y="329" font-size="9" text-anchor="middle">&#x1F4CA;</text>
<text x="190" y="329" fill="#8B949E" font-size="11" font-family="system-ui,sans-serif">Yearly analytics</text>
<rect x="170" y="338" width="14" height="14" rx="3" fill="rgba(199,125,255,0.2)"/>
<text x="177" y="349" font-size="9" text-anchor="middle">&#x1F510;</text>
<text x="190" y="349" fill="#8B949E" font-size="11" font-family="system-ui,sans-serif">Secure auth</text>

<!-- Floating petals -->
<g class="p1" transform-origin="72 195">
  <ellipse cx="72" cy="195" rx="7" ry="4" fill="#FF6B9D" opacity="0.6" transform="rotate(-30 72 195)"/>
  <ellipse cx="80" cy="192" rx="7" ry="4" fill="#FFB3CE" opacity="0.5" transform="rotate(20 80 192)"/>
</g>
<g class="p2" transform-origin="330 100">
  <ellipse cx="330" cy="100" rx="6" ry="3.5" fill="#C77DFF" opacity="0.5" transform="rotate(15 330 100)"/>
  <ellipse cx="338" cy="97" rx="6" ry="3.5" fill="#FFB3CE" opacity="0.4" transform="rotate(-25 338 97)"/>
</g>
<g class="p3" transform-origin="380 300">
  <ellipse cx="380" cy="300" rx="6" ry="3.5" fill="#FF6B9D" opacity="0.45" transform="rotate(40 380 300)"/>
  <ellipse cx="388" cy="297" rx="6" ry="3.5" fill="#C77DFF" opacity="0.35" transform="rotate(-10 388 297)"/>
</g>
<ellipse cx="290" cy="55" rx="5" ry="3" fill="#FF6B9D" opacity="0.3" transform="rotate(25 290 55)"/>
<ellipse cx="88" cy="360" rx="5" ry="3" fill="#C77DFF" opacity="0.25" transform="rotate(-15 88 360)"/>
<ellipse cx="395" cy="370" rx="4" ry="2.5" fill="#FFB3CE" opacity="0.3" transform="rotate(50 395 370)"/>
<ellipse cx="260" cy="355" rx="4" ry="2.5" fill="#7EC8E3" opacity="0.25" transform="rotate(-30 260 355)"/>

<!-- Sparkles -->
<circle cx="300" cy="38" r="2" fill="#7EC8E3" opacity="0.5"/>
<circle cx="310" cy="32" r="1.5" fill="#FF6B9D" opacity="0.4" class="glow"/>
<circle cx="355" cy="44" r="1" fill="#FFD166" opacity="0.6"/>
<circle cx="395" cy="28" r="2" fill="#C77DFF" opacity="0.4" class="glow"/>

</svg>
